<svg width="24" height="24" viewBox="0 0 24 24" fill="none" xmlns="http://www.w3.org/2000/svg">
<path d="M13.7204 8.19491C13.5879 8.06022 13.5158 7.88207 13.5192 7.69799C13.5226 7.51392 13.6014 7.33829 13.7388 7.20811C13.8762 7.07793 14.0616 7.00336 14.2559 7.00011C14.4502 6.99686 14.6383 7.06519 14.7804 7.1907L18.7807 10.9802C18.9211 11.1134 19 11.294 19 11.4823C19 11.6706 18.9211 11.8512 18.7807 11.9844L14.7804 15.7739C14.7118 15.8437 14.629 15.8997 14.537 15.9385C14.445 15.9773 14.3456 15.9982 14.2449 15.9999C14.1442 16.0016 14.0442 15.984 13.9508 15.9483C13.8574 15.9126 13.7726 15.8594 13.7014 15.7919C13.6301 15.7244 13.574 15.6441 13.5363 15.5556C13.4985 15.4671 13.48 15.3723 13.4818 15.2769C13.4836 15.1815 13.5056 15.0875 13.5466 15.0003C13.5876 14.9131 13.6467 14.8347 13.7204 14.7696L16.4405 12.1928H6.75004C6.55112 12.1928 6.36034 12.1179 6.21968 11.9847C6.07902 11.8514 6 11.6707 6 11.4823C6 11.2938 6.07902 11.1131 6.21968 10.9799C6.36034 10.8466 6.55112 10.7718 6.75004 10.7718H16.4405L13.7204 8.19491Z" fill="white"/>
</svg>
