<svg width="31" height="32" viewBox="0 0 31 32" fill="none" xmlns="http://www.w3.org/2000/svg">
<path opacity="0.4" d="M15.9167 28.8333C23.0503 28.8333 28.8333 23.0503 28.8333 15.9167C28.8333 8.78299 23.0503 3 15.9167 3C8.78299 3 3 8.78299 3 15.9167C3 23.0503 8.78299 28.8333 15.9167 28.8333Z" fill="white"/>
<path d="M17.7778 15.9146L21.6352 12.0586C22.1216 11.5724 22.1216 10.7676 21.6352 10.2814C21.1488 9.7952 20.3438 9.7952 19.8574 10.2814L16 14.1375L12.1425 10.2814C11.6562 9.7952 10.8511 9.7952 10.3648 10.2814C9.87841 10.7676 9.87841 11.5724 10.3648 12.0586L14.2222 15.9146L10.3648 19.7707C9.87841 20.2569 9.87841 21.0617 10.3648 21.5479C10.6164 21.7994 10.935 21.9167 11.2536 21.9167C11.5723 21.9167 11.891 21.7994 12.1425 21.5479L16 17.6918L19.8574 21.5479C20.109 21.7994 20.4277 21.9167 20.7463 21.9167C21.065 21.9167 21.3836 21.7994 21.6352 21.5479C22.1216 21.0617 22.1216 20.2569 21.6352 19.7707L17.7778 15.9146Z" fill="white"/>
</svg>
