<svg width="20" height="20" viewBox="0 0 20 20" fill="none" xmlns="http://www.w3.org/2000/svg">
<path d="M7.5 12.6313C9.16208 12.4564 10.8379 12.4564 12.5 12.6313M3.52567 15.314C3.54516 15.3961 3.58106 15.4735 3.63122 15.5414C3.68138 15.6093 3.74477 15.6664 3.81756 15.7092C3.89035 15.752 3.97105 15.7796 4.05479 15.7904C4.13854 15.8012 4.2236 15.7949 4.30486 15.772C8.03057 14.7433 11.9653 14.7429 15.6913 15.7709C15.7725 15.7938 15.8575 15.8 15.9412 15.7893C16.0249 15.7785 16.1056 15.7509 16.1784 15.7081C16.2512 15.6653 16.3145 15.6083 16.3647 15.5404C16.4148 15.4725 16.4508 15.3952 16.4703 15.3131L18.4616 6.85085C18.4882 6.73756 18.4827 6.61908 18.4457 6.50876C18.4087 6.39843 18.3415 6.30063 18.2519 6.22639C18.1623 6.15214 18.0537 6.1044 17.9384 6.08852C17.8231 6.07265 17.7057 6.08929 17.5994 6.13655L13.6475 7.89293C13.5048 7.95635 13.3435 7.96406 13.1954 7.91453C13.0473 7.86501 12.9232 7.76183 12.8473 7.62533L10.5463 3.48358C10.4922 3.38615 10.413 3.30496 10.317 3.24844C10.2209 3.19192 10.1115 3.16211 10 3.16211C9.88854 3.16211 9.77911 3.19192 9.68304 3.24844C9.58698 3.30496 9.50778 3.38615 9.45365 3.48358L7.15268 7.62533C7.07685 7.76183 6.95266 7.865 6.80456 7.91453C6.65647 7.96406 6.4952 7.95635 6.3525 7.89293L2.40004 6.13629C2.29371 6.08903 2.1763 6.07239 2.06103 6.08825C1.94576 6.10411 1.8372 6.15183 1.74758 6.22604C1.65796 6.30025 1.59084 6.39801 1.55377 6.5083C1.5167 6.6186 1.51116 6.73705 1.53776 6.85033L3.52567 15.314Z" stroke="#EBD52C" stroke-width="1.5" stroke-linecap="round" stroke-linejoin="round"/>
</svg>
