<svg width="27" height="28" viewBox="0 0 27 28" fill="none" xmlns="http://www.w3.org/2000/svg">
<path d="M13.5 27.75C20.9732 27.75 27 21.7232 27 14.25C27 6.77679 20.9732 0.75 13.5 0.75C6.02679 0.75 0 6.77679 0 14.25C0 21.7232 6.02679 27.75 13.5 27.75Z" fill="url(#paint0_linear_32_166)"/>
<path d="M20.8585 13.2317C20.835 13.1316 20.7872 13.0389 20.7194 12.9618C20.6515 12.8846 20.5657 12.8254 20.4695 12.7893L15.9671 11.1009L17.1129 5.37207C17.1396 5.23873 17.122 5.10033 17.0629 4.97786C17.0038 4.8554 16.9064 4.75555 16.7854 4.69346C16.6644 4.63138 16.5265 4.61044 16.3925 4.63383C16.2586 4.65721 16.1359 4.72365 16.0431 4.82306L7.29309 14.1981C7.22298 14.2732 7.17247 14.3644 7.14604 14.4637C7.1196 14.563 7.11806 14.6673 7.14154 14.7673C7.16502 14.8674 7.2128 14.9601 7.28066 15.0372C7.34851 15.1144 7.43435 15.1736 7.53056 15.2097L12.0329 16.8981L10.8872 22.6269C10.8605 22.7603 10.878 22.8987 10.9371 23.0212C10.9962 23.1436 11.0937 23.2435 11.2146 23.3056C11.3356 23.3677 11.4736 23.3886 11.6075 23.3652C11.7415 23.3418 11.8642 23.2754 11.9569 23.1759L20.7069 13.8009C20.7771 13.7258 20.8276 13.6346 20.854 13.5353C20.8804 13.436 20.882 13.3317 20.8585 13.2317Z" fill="white"/>
<defs>
<linearGradient id="paint0_linear_32_166" x1="-7.27397" y1="14.314" x2="61.1499" y2="61.7839" gradientUnits="userSpaceOnUse">
<stop stop-color="#F59500"/>
<stop offset="1" stop-color="#F5BD28"/>
</linearGradient>
</defs>
</svg>
