<svg width="41" height="41" viewBox="0 0 41 41" fill="none" xmlns="http://www.w3.org/2000/svg">
<path fill-rule="evenodd" clip-rule="evenodd" d="M21.9357 0.0537813C22.7194 0.105807 23.4994 0.18843 24.2759 0.301524C24.6985 0.380183 25.109 0.504054 25.5075 0.673138C25.3977 0.959653 25.5004 1.00103 25.8155 0.79701C26.4425 1.04847 27.0789 1.27565 27.7246 1.4783C27.9236 1.55448 28.0878 1.67835 28.2173 1.84992C27.9607 1.90876 27.7349 2.01194 27.5398 2.1596C27.4447 2.14163 27.3626 2.10038 27.2935 2.03572C26.98 2.35791 26.9595 2.66759 27.2319 2.96476C26.9639 2.98495 26.7381 3.08814 26.5545 3.27444C25.9379 3.06101 25.2605 2.97839 24.5222 3.0267C24.1117 2.94407 23.701 2.86157 23.2905 2.77895C21.445 2.48922 19.5974 2.48922 17.7479 2.77895C10.7661 4.18526 6.00357 8.23177 3.46039 14.9184C3.37146 14.8666 3.30988 14.7841 3.27564 14.6706C3.23659 14.8937 3.15444 14.935 3.0293 14.7945C3.06859 15.0723 3.04802 15.3408 2.96772 15.5996C2.7624 15.5584 2.5572 15.517 2.35188 15.4758C2.43403 15.6409 2.51606 15.8061 2.59821 15.9713C2.38809 16.1732 2.18276 16.359 1.98237 16.5287C2.19681 16.933 2.07364 17.1601 1.61286 17.21C1.76806 17.3478 1.91179 17.3685 2.04395 17.2719C2.26997 17.5478 2.20838 17.7748 1.8592 17.9532C1.52468 18.2196 1.21675 18.199 0.935438 17.8913C0.677276 18.0418 0.697846 18.1451 0.997022 18.2009C0.771254 18.3455 0.586501 18.5313 0.442764 18.7584C0.488213 18.3508 0.488213 17.938 0.442764 17.5197C0.360364 18.383 0.29878 18.4244 0.258011 17.6435C1.58047 9.92571 5.80934 4.49606 12.9444 1.35443C15.8451 0.271547 18.8423 -0.162003 21.9357 0.0537813Z" fill="#57F87A"/>
<path fill-rule="evenodd" clip-rule="evenodd" d="M25.5075 0.673096C29.2721 1.57438 32.4745 3.43246 35.1147 6.24731C35.1227 6.30157 35.1023 6.34294 35.0531 6.37118C34.8068 6.12344 34.5604 5.8757 34.3141 5.62795C34.2699 6.00502 34.1877 6.04639 34.0678 5.75182C33.9471 5.96971 33.8649 6.17621 33.8214 6.37118C33.4264 6.04292 33.3648 6.06348 33.6367 6.43312C33.5238 6.47944 33.4211 6.54138 33.3287 6.61892C33.2771 6.47375 33.1951 6.34987 33.0824 6.24731C32.8016 6.4377 32.4937 6.58213 32.1586 6.68086C32.9301 7.39399 33.628 8.1579 34.2525 8.97248C33.3741 8.15109 32.5119 7.30468 31.666 6.43312C29.5074 4.78996 27.1262 3.65443 24.5222 3.02665C25.2605 2.97834 25.9379 3.06097 26.5545 3.2744C26.7381 3.08809 26.9639 2.98491 27.2319 2.96472C26.9595 2.66755 26.98 2.35787 27.2935 2.03568C27.3626 2.10034 27.4447 2.14159 27.5398 2.15955C27.7349 2.0119 27.9607 1.90871 28.2173 1.84987C28.0878 1.67831 27.9236 1.55444 27.7246 1.47826C27.0789 1.27561 26.4425 1.04843 25.8155 0.796967C25.5004 1.00098 25.3977 0.95961 25.5075 0.673096Z" fill="#48E877"/>
<path fill-rule="evenodd" clip-rule="evenodd" d="M35.1147 6.24729C36.8071 7.8269 38.1208 9.68497 39.0561 11.8215C38.7813 11.6263 38.5761 11.3579 38.4402 11.0163C38.311 10.9554 38.1878 10.976 38.0707 11.0783C37.9475 10.9957 37.8244 10.9132 37.7012 10.8305C37.7103 11.055 37.6693 11.3027 37.578 11.5738C37.4637 11.8011 37.3201 11.8423 37.147 11.6976C37.2229 11.8952 37.1819 12.0603 37.0238 12.1931C36.8972 11.9626 36.7124 11.7973 36.4695 11.6976C36.4285 11.7596 36.3874 11.8215 36.3464 11.8834C36.617 12.4897 36.9043 13.0885 37.2085 13.6796C37.1933 13.7548 37.1522 13.796 37.0854 13.8034C36.2883 12.0964 35.344 10.486 34.2525 8.97246C33.628 8.15788 32.93 7.39396 32.1586 6.68084C32.4936 6.58211 32.8016 6.43768 33.0824 6.24729C33.1951 6.34985 33.2771 6.47372 33.3287 6.6189C33.4211 6.54136 33.5238 6.47942 33.6367 6.43309C33.3648 6.06346 33.4264 6.0429 33.8214 6.37116C33.8649 6.17618 33.947 5.96969 34.0677 5.7518C34.1877 6.04637 34.2699 6.00499 34.3141 5.62793C34.5604 5.87567 34.8068 6.12342 35.0531 6.37116C35.1022 6.34292 35.1227 6.30154 35.1147 6.24729Z" fill="#38D873"/>
<path fill-rule="evenodd" clip-rule="evenodd" d="M23.0442 13.0602C22.9428 13.3024 22.9222 13.5501 22.9826 13.8034C23.8081 14.6543 24.6497 15.4801 25.5075 16.2809C25.7233 16.4971 25.8875 16.7449 26.0002 17.0241C25.469 16.5313 24.9353 16.0358 24.399 15.5376C24.1111 15.6759 23.8443 15.8411 23.5984 16.0331C23.3757 15.7983 23.1088 15.7363 22.7978 15.8473C23.8859 16.882 24.9534 18.0175 26.0002 19.2538C24.5471 17.8543 23.1101 16.4297 21.6893 14.9802C20.1112 15.4761 18.8589 15.0425 17.9327 13.6796C17.2157 11.4881 17.9753 10.1256 20.2113 9.5918C22.3308 9.78231 23.2751 10.9385 23.0442 13.0602Z" fill="#49EA77"/>
<path fill-rule="evenodd" clip-rule="evenodd" d="M3.46039 14.9184C2.22661 19.0463 2.34978 23.134 3.82989 27.1817C3.8496 27.3921 3.82915 27.5986 3.76831 27.801C3.72729 27.7184 3.68615 27.6359 3.64514 27.5533C3.56299 27.7184 3.48095 27.7184 3.3988 27.5533C3.24447 27.9923 3.01858 28.0335 2.72137 27.6772C2.61225 27.7793 2.57123 27.9032 2.59821 28.0488C2.30223 28.0355 2.07646 28.1594 1.92078 28.4204C1.87976 28.2965 1.83863 28.1726 1.79761 28.0488C1.69156 28.2034 1.62998 28.3685 1.61286 28.5443C0.748339 26.5113 0.214527 24.4055 0.0116683 22.2268C-0.0225726 21.1054 0.0185657 19.9906 0.134837 18.8823C0.096285 18.4435 0.137423 18.0307 0.258005 17.6436C0.298774 18.4245 0.360358 18.3831 0.442758 17.5197C0.488207 17.938 0.488207 18.3509 0.442758 18.7584C0.586496 18.5314 0.771248 18.3455 0.997016 18.201C0.69784 18.1451 0.677271 18.0418 0.935432 17.8913C1.21675 18.199 1.52467 18.2197 1.8592 17.9532C2.20838 17.7749 2.26996 17.5478 2.04395 17.272C1.91179 17.3686 1.76805 17.3479 1.61286 17.21C2.07363 17.1601 2.1968 16.933 1.98236 16.5287C2.18276 16.359 2.38808 16.1732 2.59821 15.9713C2.51605 15.8062 2.43402 15.6409 2.35187 15.4758C2.55719 15.5171 2.76239 15.5584 2.96771 15.5997C3.04802 15.3408 3.06859 15.0724 3.0293 14.7945C3.15444 14.935 3.23659 14.8937 3.27563 14.6707C3.30987 14.7841 3.37146 14.8666 3.46039 14.9184Z" fill="#4CEE77"/>
<path fill-rule="evenodd" clip-rule="evenodd" d="M39.0561 11.8215C40.6406 15.1477 41.2565 18.6574 40.9036 22.3506C40.8292 21.1264 40.7266 19.8877 40.5957 18.6345C40.5599 18.8257 40.4779 18.9908 40.3493 19.13C40.2938 18.8291 40.191 18.8084 40.0414 19.068C40.1585 19.157 40.179 19.2601 40.103 19.3777C40.0145 19.2599 39.9119 19.2393 39.7951 19.3158C39.897 19.4291 40.0202 19.5116 40.1646 19.5635C39.9932 19.7679 39.8085 19.8298 39.6103 19.7493C39.4461 19.8319 39.323 19.9558 39.2408 20.1209C39.2101 19.9817 39.1486 19.8578 39.0561 19.7493C38.9421 19.8906 38.8394 19.8906 38.7481 19.7493C38.7071 19.4603 38.666 19.1712 38.625 18.8822C38.5839 20.2448 38.5428 21.6074 38.5018 22.97C38.4646 23.3335 38.362 23.5813 38.1939 23.7132C38.5426 21.5173 38.5015 19.3289 38.0707 17.148C37.8659 15.9919 37.5374 14.8771 37.0854 13.8035C37.1522 13.796 37.1933 13.7548 37.2085 13.6796C36.9043 13.0885 36.6169 12.4897 36.3463 11.8835C36.3874 11.8215 36.4285 11.7596 36.4695 11.6977C36.7124 11.7974 36.8972 11.9626 37.0238 12.1932C37.1819 12.0604 37.2229 11.8952 37.1469 11.6977C37.3201 11.8423 37.4637 11.8011 37.578 11.5738C37.6693 11.3028 37.7103 11.055 37.7012 10.8306C37.8244 10.9132 37.9475 10.9957 38.0707 11.0783C38.1878 10.976 38.311 10.9554 38.4402 11.0164C38.5761 11.3579 38.7813 11.6263 39.0561 11.8215Z" fill="#29C76E"/>
<path fill-rule="evenodd" clip-rule="evenodd" d="M26.0002 17.0241C26.6069 17.4478 27.1612 17.9433 27.663 18.5105C29.0511 17.9847 30.2007 18.315 31.1117 19.5015C31.1712 19.6189 31.1916 19.7428 31.1733 19.8731C30.8735 19.5092 30.545 19.1582 30.1879 18.8202C29.9607 18.6805 29.7143 18.6185 29.4489 18.6344C29.4079 19.006 29.2026 19.2125 28.8331 19.2537C28.8719 19.4675 28.8923 19.674 28.8947 19.8731C28.7715 19.7905 28.6483 19.708 28.5252 19.6254C28.3882 20.3925 28.0597 20.5164 27.5398 19.997C27.5017 20.2312 27.6045 20.3965 27.8477 20.4925C27.6225 20.5893 27.4377 20.5068 27.2935 20.2447C27.2113 20.4098 27.1293 20.5751 27.0471 20.7402C27.0061 20.6576 26.965 20.5751 26.924 20.4925C26.6128 20.8099 26.4075 20.7274 26.3081 20.2447C26.1832 20.7081 26.0806 21.1622 26.0002 21.6073C25.8408 20.9206 25.923 20.2599 26.2465 19.6254C26.1612 19.4993 26.0792 19.3754 26.0002 19.2537C24.9534 18.0175 23.8859 16.882 22.7978 15.8473C23.1088 15.7363 23.3757 15.7982 23.5984 16.0331C23.8443 15.8411 24.111 15.6758 24.399 15.5376C24.9353 16.0358 25.469 16.5313 26.0002 17.0241Z" fill="#32D071"/>
<path fill-rule="evenodd" clip-rule="evenodd" d="M16.5163 23.961C16.2014 23.8318 15.9345 23.6253 15.7157 23.3417C15.549 23.4885 15.4053 23.6537 15.2846 23.8372C15.2124 23.8113 15.1508 23.7699 15.0998 23.7133C15.0031 23.9345 14.8595 24.1203 14.6687 24.2707C15.2355 24.7778 15.7282 25.3353 16.1467 25.943C15.3094 25.1629 14.4883 24.3578 13.6834 23.5275C12.0176 23.9329 10.7244 23.4167 9.80357 21.9791C9.29107 19.7101 10.1737 18.4714 12.4517 18.2629C14.3439 18.4693 15.2267 19.5428 15.0998 21.4836C14.9967 21.7129 14.894 21.9399 14.7919 22.1649C15.3849 22.7408 15.9598 23.3394 16.5163 23.961Z" fill="#43E575"/>
<path fill-rule="evenodd" clip-rule="evenodd" d="M31.1733 19.8732C31.8062 21.5857 31.2726 22.8451 29.5721 23.6513C28.8136 23.7416 28.0746 23.7003 27.3551 23.5274C25.8326 25.0477 24.293 26.5547 22.7362 28.0487C22.8432 28.4122 22.9663 28.7838 23.1058 29.1636C23.2217 31.925 21.9284 33.0192 19.2259 32.4462C17.6796 31.3312 17.3511 29.9274 18.2406 28.2345C18.148 28.1514 18.1068 28.0482 18.1174 27.9249C18.1272 27.7477 18.0861 27.5825 17.9943 27.4294C18.2376 27.1944 18.4635 26.9466 18.6717 26.6861C19.0682 26.6818 19.3761 26.8882 19.5954 27.3055C20.1658 27.4494 20.7407 27.47 21.3198 27.3674C21.0075 27.3444 20.7201 27.2825 20.4576 27.1816C20.7886 27.2019 21.1171 27.1813 21.443 27.1197C23.0103 25.5434 24.5909 23.9538 26.185 22.3506C26.1665 22.1022 26.1049 21.8544 26.0002 21.6074C26.0806 21.1623 26.1832 20.7082 26.3081 20.2448C26.4075 20.7276 26.6128 20.8101 26.924 20.4926C26.965 20.5752 27.0061 20.6577 27.0471 20.7403C27.1293 20.5752 27.2113 20.41 27.2935 20.2448C27.4377 20.5069 27.6225 20.5894 27.8477 20.4926C27.6045 20.3966 27.5018 20.2313 27.5398 19.9971C28.0597 20.5165 28.3882 20.3926 28.5252 19.6255C28.6483 19.7081 28.7715 19.7906 28.8947 19.8732C28.8923 19.6742 28.8719 19.4677 28.8331 19.2539C29.2026 19.2126 29.4079 19.0061 29.4489 18.6345C29.7144 18.6186 29.9607 18.6806 30.1879 18.8203C30.545 19.1584 30.8735 19.5093 31.1733 19.8732Z" fill="#24C06D"/>
<path fill-rule="evenodd" clip-rule="evenodd" d="M16.5163 23.9609C17.5999 24.9888 18.6674 26.0417 19.7186 27.1196C19.9617 27.1809 20.208 27.2016 20.4577 27.1816C20.7201 27.2824 21.0075 27.3443 21.3198 27.3674C20.7407 27.4699 20.1659 27.4494 19.5955 27.3054C19.3761 26.8881 19.0682 26.6817 18.6717 26.6861C18.4636 26.9466 18.2377 27.1943 17.9943 27.4293C18.0862 27.5824 18.1272 27.7477 18.1174 27.9248C17.4195 27.3054 16.7626 26.6448 16.1468 25.9429C15.7282 25.3351 15.2356 24.7777 14.6687 24.2706C14.8595 24.1202 15.0031 23.9344 15.0998 23.7132C15.1508 23.7698 15.2124 23.8111 15.2846 23.837C15.4053 23.6536 15.549 23.4883 15.7157 23.3416C15.9345 23.6252 16.2014 23.8317 16.5163 23.9609Z" fill="#32D371"/>
<path fill-rule="evenodd" clip-rule="evenodd" d="M3.8299 27.1816C4.68789 28.9069 5.67324 30.5585 6.78595 32.1365C6.52815 32.069 6.28182 31.9658 6.04694 31.8268C6.12909 31.7856 6.21112 31.7442 6.29327 31.7029C6.0223 31.4262 5.79653 31.1165 5.61585 30.7739C5.57483 30.9804 5.53369 31.1868 5.49268 31.3933C5.24634 31.4759 5.08216 31.641 5 31.8888C4.94901 31.8321 4.88743 31.7908 4.81525 31.7649C4.60131 32.1179 4.37542 32.1593 4.13782 31.8888C4.03436 32.2378 4.13708 32.5061 4.44574 32.6939C4.34265 32.8192 4.30164 32.9637 4.32258 33.1275C3.1994 31.7359 2.29608 30.2082 1.61287 28.5442C1.62999 28.3685 1.69157 28.2033 1.79762 28.0487C1.83864 28.1726 1.87978 28.2965 1.92079 28.4204C2.07648 28.1594 2.30224 28.0355 2.59822 28.0487C2.57124 27.9032 2.61226 27.7793 2.72139 27.6771C3.01859 28.0335 3.24448 27.9923 3.39881 27.5533C3.48097 27.7184 3.563 27.7184 3.64515 27.5533C3.68616 27.6359 3.7273 27.7184 3.76832 27.801C3.82916 27.5986 3.84961 27.3921 3.8299 27.1816Z" fill="#39DA73"/>
<path fill-rule="evenodd" clip-rule="evenodd" d="M6.78596 32.1365C7.5411 32.8339 8.28011 33.5566 9.00299 34.3043C10.1222 35.1964 11.3129 35.9603 12.5749 36.5959C12.1461 36.5052 11.7356 36.34 11.3432 36.1004C11.261 36.1416 11.179 36.183 11.0969 36.2243C10.8556 36.0697 10.6708 35.8632 10.5426 35.6049C10.2979 36.1123 9.98994 36.4839 9.61883 36.7198C9.45834 36.5689 9.33517 36.6101 9.24933 36.8436C9.00471 36.5608 8.86097 36.6434 8.81824 37.0914C8.7298 36.9736 8.6272 36.953 8.51031 37.0294C8.70652 37.147 8.87071 37.2914 9.00299 37.463C7.13354 36.3678 5.57349 34.9228 4.32259 33.1275C4.30165 32.9637 4.34266 32.8192 4.44575 32.6939C4.13709 32.5061 4.03437 32.2378 4.13783 31.8888C4.37543 32.1593 4.60132 32.1179 4.81526 31.7649C4.88744 31.7908 4.94902 31.8322 5.00001 31.8888C5.08217 31.641 5.24635 31.4759 5.49269 31.3933C5.5337 31.1868 5.57484 30.9804 5.61585 30.7739C5.79654 31.1166 6.02231 31.4262 6.29328 31.703C6.21113 31.7442 6.1291 31.7856 6.04694 31.8268C6.28183 31.9658 6.52816 32.069 6.78596 32.1365Z" fill="#2AC86F"/>
<path fill-rule="evenodd" clip-rule="evenodd" d="M40.9036 22.3507C39.9946 30.188 36.0121 35.8242 28.9563 39.2591C26.7872 40.1867 24.5291 40.7441 22.182 40.9314C21.013 40.8286 19.8223 40.7666 18.6101 40.7456C18.216 40.7331 17.8465 40.6504 17.5016 40.4978C17.5943 40.3136 17.6969 40.2929 17.8095 40.4359C17.889 40.2939 17.9916 40.1701 18.1174 40.0643C17.9769 39.9497 17.9769 39.8464 18.1174 39.7546C18.2895 39.9029 18.5769 39.9441 18.9796 39.8785C18.9386 39.7546 18.8975 39.6307 18.8565 39.5069C18.918 39.4862 18.9796 39.4656 19.0412 39.4449C19.1829 39.5594 19.306 39.5594 19.4107 39.4449C19.5749 39.5275 19.6981 39.6514 19.7802 39.8165C19.8613 39.6174 19.7997 39.4728 19.5955 39.383C19.6365 39.3417 19.6776 39.3004 19.7186 39.2591C19.5894 39.1982 19.4663 39.2187 19.3491 39.3211C19.2484 39.1219 19.1662 38.9154 19.1028 38.7017C20.2803 38.5386 21.4504 38.5386 22.6131 38.7017C22.9093 38.6058 23.2172 38.5439 23.5369 38.5159C23.3638 38.3587 23.1586 38.2968 22.921 38.3301C30.6391 36.9857 35.607 32.5263 37.8244 24.952C37.9489 24.5258 38.0721 24.1129 38.1939 23.7133C38.362 23.5813 38.4646 23.3336 38.5018 22.97C38.5428 21.6074 38.584 20.2449 38.625 18.8823C38.666 19.1713 38.7071 19.4604 38.7482 19.7494C38.8394 19.8907 38.9422 19.8907 39.0561 19.7494C39.1486 19.8579 39.2102 19.9817 39.2408 20.121C39.323 19.9559 39.4462 19.832 39.6103 19.7494C39.8085 19.8299 39.9933 19.7679 40.1646 19.5636C40.0202 19.5117 39.8971 19.4292 39.7951 19.3158C39.912 19.2394 40.0146 19.2599 40.103 19.3778C40.179 19.2602 40.1586 19.157 40.0414 19.0681C40.1911 18.8084 40.2938 18.8291 40.3494 19.13C40.4779 18.9909 40.56 18.8258 40.5957 18.6345C40.7266 19.8877 40.8292 21.1264 40.9036 22.3507Z" fill="#19B26A"/>
<path fill-rule="evenodd" clip-rule="evenodd" d="M12.5749 36.596C15.8625 38.1159 19.3112 38.694 22.921 38.3302C23.1586 38.2968 23.3638 38.3588 23.5369 38.516C23.2172 38.544 22.9093 38.6059 22.6131 38.7018C21.4504 38.5386 20.2803 38.5386 19.1028 38.7018C19.1662 38.9154 19.2484 39.1219 19.3491 39.3211C19.4663 39.2188 19.5894 39.1982 19.7186 39.2592C19.6776 39.3004 19.6365 39.3418 19.5955 39.3831C19.7997 39.4729 19.8613 39.6174 19.7802 39.8166C19.6981 39.6515 19.5749 39.5276 19.4107 39.445C19.306 39.5595 19.1828 39.5595 19.0412 39.445C18.9796 39.4657 18.918 39.4862 18.8565 39.5069C18.8975 39.6308 18.9386 39.7547 18.9796 39.8785C18.5769 39.9442 18.2895 39.9029 18.1174 39.7547C17.9769 39.8465 17.9769 39.9498 18.1174 40.0644C17.9916 40.1701 17.889 40.294 17.8095 40.436C17.6969 40.293 17.5943 40.3137 17.5016 40.4979C17.8465 40.6505 18.216 40.7331 18.6101 40.7456C19.8223 40.7667 21.013 40.8286 22.182 40.9315C17.5469 41.2909 13.236 40.238 9.24931 37.7727C9.1408 37.685 9.05877 37.5817 9.00297 37.4631C8.87069 37.2915 8.70651 37.1471 8.5103 37.0295C8.62719 36.9531 8.72979 36.9736 8.81822 37.0914C8.86096 36.6435 9.0047 36.5609 9.24931 36.8437C9.33516 36.6102 9.45833 36.5689 9.61882 36.7198C9.98992 36.484 10.2978 36.1124 10.5426 35.605C10.6708 35.8633 10.8556 36.0697 11.0968 36.2243C11.179 36.1831 11.261 36.1417 11.3432 36.1005C11.7356 36.34 12.1461 36.5053 12.5749 36.596Z" fill="#1FBB6C"/>
</svg>
