<svg width="20" height="20" viewBox="0 0 20 20" fill="none" xmlns="http://www.w3.org/2000/svg">
<path d="M16.4477 7.54611C16.4126 7.49135 16.3617 7.4458 16.3002 7.41411C16.2387 7.38242 16.1688 7.36572 16.0977 7.36572H10.8271L11.7107 1.39519C11.7202 1.31528 11.699 1.23488 11.6505 1.16692C11.6021 1.09897 11.5291 1.04742 11.4435 1.02057C11.3579 0.993722 11.2645 0.99314 11.1785 1.01892C11.0924 1.04469 11.0187 1.09533 10.9691 1.16267L4.5596 11.0931C4.52212 11.147 4.50157 11.2088 4.50009 11.2721C4.4986 11.3354 4.51622 11.3978 4.55114 11.4531C4.58606 11.5083 4.63701 11.5543 4.69873 11.5864C4.76045 11.6184 4.83072 11.6353 4.90228 11.6353H10.0941L9.39381 17.6148C9.38693 17.6944 9.41036 17.7738 9.46038 17.8403C9.51039 17.9068 9.58412 17.9566 9.66982 17.9818C9.75553 18.0069 9.84829 18.006 9.93335 17.9792C10.0184 17.9524 10.0909 17.9012 10.1392 17.8337L16.4429 7.90431C16.4794 7.85031 16.4991 7.78871 16.5 7.72578C16.5008 7.66286 16.4828 7.60086 16.4477 7.54611Z" fill="white"/>
</svg>
