<svg width="20" height="20" viewBox="0 0 20 20" fill="none" xmlns="http://www.w3.org/2000/svg">
<path d="M10.0078 2.5C10.2116 2.5 10.4018 2.52254 10.5527 2.55957L10.6904 2.60156L15.2441 4.33984V4.34082C15.5653 4.46565 15.8864 4.73671 16.1279 5.09473C16.369 5.45224 16.5031 5.85581 16.5 6.21289V13.0664C16.5 13.3124 16.4174 13.6316 16.2637 13.9453C16.1098 14.2593 15.9086 14.5175 15.7168 14.665L11.1602 18.1396L11.1582 18.1406C10.8581 18.3709 10.4401 18.5 10 18.5C9.55993 18.5 9.14192 18.3709 8.8418 18.1406L8.83984 18.1396L4.28125 14.6641L4.2793 14.6621L4.13672 14.5352C3.99379 14.3886 3.85197 14.1858 3.73633 13.9492C3.58253 13.6345 3.50003 13.3127 3.5 13.0664V6.2168C3.50011 5.85803 3.63681 5.45338 3.87988 5.0957C4.12323 4.73765 4.44533 4.46606 4.77051 4.34082L9.32617 2.60156C9.48917 2.5403 9.73604 2.50004 10.0078 2.5ZM13.2539 7.35547C12.8175 6.91028 12.0975 6.91028 11.6611 7.35547L8.89258 10.1787L8.35547 9.62988C7.9191 9.18473 7.19912 9.18482 6.7627 9.62988C6.33173 10.0695 6.33173 10.7869 6.7627 11.2266V11.2256L8.08691 12.5938L8.08887 12.5957C8.31108 12.8224 8.59877 12.9316 8.88477 12.9316C9.17087 12.9316 9.45934 12.8225 9.68164 12.5957L13.2461 8.95996L13.2451 8.95898C13.6851 8.5182 13.6837 7.7939 13.2539 7.35547Z" fill="url(#paint0_linear_32_1445)" stroke="url(#paint1_linear_32_1445)"/>
<defs>
<linearGradient id="paint0_linear_32_1445" x1="10.9796" y1="2.67298" x2="10.1688" y2="18.0038" gradientUnits="userSpaceOnUse">
<stop stop-color="white"/>
<stop offset="1" stop-color="white" stop-opacity="0.2"/>
</linearGradient>
<linearGradient id="paint1_linear_32_1445" x1="14.8462" y1="16.3846" x2="3.81628" y2="6.76687" gradientUnits="userSpaceOnUse">
<stop stop-color="white" stop-opacity="0.3"/>
<stop offset="1" stop-color="white" stop-opacity="0"/>
</linearGradient>
</defs>
</svg>
